<svg width="236" height="236" viewBox="0 0 236 236" fill="none" xmlns="http://www.w3.org/2000/svg">
<path d="M135.756 60.2861C151.38 47.5898 173.831 45.1273 192.305 55.793C216.219 69.6001 224.412 100.179 210.605 124.094C199.03 144.142 140.113 175.908 121.367 185.654C118.729 187.026 115.641 185.128 115.668 182.154C115.817 165.526 116.574 120.459 120.424 91.9229C122.044 79.9116 126.35 67.9296 135.756 60.2861ZM169.784 65.3154C153.983 65.3154 141.173 78.1253 141.173 93.9268C141.173 109.728 153.983 122.538 169.784 122.538C185.586 122.538 198.396 109.728 198.396 93.9268C198.395 78.1253 185.586 65.3155 169.784 65.3154Z" fill="#14ADAC"/>
<path d="M80.751 84.8164C68.6808 76.8387 52.6514 75.8287 39.2695 83.5547C20.4135 94.4416 13.9532 118.553 24.8398 137.409C33.4781 152.371 75.5534 175.607 92.5664 184.568C95.855 186.3 99.7096 183.922 99.665 180.205C99.4967 166.173 98.8578 136.763 96.4268 115.871C95.0258 103.832 90.862 91.4993 80.751 84.8164ZM57.583 94.3574C70.4179 94.3577 80.8223 104.763 80.8223 117.598C80.8222 130.433 70.4178 140.838 57.583 140.838C44.748 140.838 34.3428 130.433 34.3428 117.598C34.3428 104.763 44.7479 94.3574 57.583 94.3574Z" fill="#0E8989"/>
</svg>
