<svg width="236" height="236" viewBox="0 0 236 236" fill="none" xmlns="http://www.w3.org/2000/svg">
<path d="M135.754 60.2939C151.378 47.5976 173.829 45.1351 192.303 55.8008C216.217 69.6079 224.41 100.187 210.604 124.102C199.028 144.15 140.111 175.916 121.365 185.662C118.727 187.034 115.639 185.135 115.666 182.162C115.815 165.533 116.572 120.467 120.422 91.9307C122.042 79.9194 126.348 67.9374 135.754 60.2939ZM169.782 65.3232C153.981 65.3232 141.171 78.1331 141.171 93.9346C141.171 109.736 153.981 122.546 169.782 122.546C185.584 122.546 198.394 109.736 198.394 93.9346C198.393 78.1332 185.584 65.3233 169.782 65.3232Z" fill="white"/>
<path d="M80.751 84.8242C68.6808 76.8466 52.6523 75.8356 39.2705 83.5615C20.4141 94.4483 13.9531 118.561 24.8398 137.417C33.4781 152.378 75.5532 175.615 92.5664 184.576C95.855 186.308 99.7105 183.93 99.666 180.213C99.4977 166.181 98.8578 136.771 96.4268 115.879C95.0258 103.84 90.8621 91.5071 80.751 84.8242ZM57.583 94.3652C70.4181 94.3652 80.8232 104.77 80.8232 117.605C80.823 130.44 70.4179 140.845 57.583 140.845C44.7481 140.845 34.343 130.44 34.3428 117.605C34.3428 104.77 44.748 94.3653 57.583 94.3652Z" fill="white"/>
</svg>
