<svg width="550" height="550" viewBox="0 0 550 550" fill="none" xmlns="http://www.w3.org/2000/svg">
<path d="M275.533 26.1816C345.408 26.1816 405.607 67.597 432.927 127.219C438.706 139.83 428.655 153.104 414.783 153.104H317.957C306.359 153.104 296.957 162.507 296.957 174.104V195.214C296.957 206.812 306.359 216.214 317.957 216.214H423.94C436.496 216.214 446.224 227.171 443.582 239.446C441.732 248.043 439.405 257.078 436.666 266.428C434.111 275.15 426.004 280.984 416.915 280.984H317.957C306.359 280.984 296.957 290.386 296.957 301.984V455.366C296.957 523.818 275.533 523.818 275.533 523.818C222.206 523.818 102.488 294.797 102.488 199.227C102.488 103.656 179.963 26.1816 275.533 26.1816Z" fill="#00A7A6"/>
</svg>
