<svg width="443" height="443" viewBox="0 0 443 443" fill="none" xmlns="http://www.w3.org/2000/svg">
<path d="M152.01 13.5502C144.364 17.4169 139.619 25.9411 140.674 34.1138C141.464 39.2986 143.134 42.5501 147.44 46.6804L150.955 50.0197L144.628 82.7984C140.322 105.119 138.037 114.874 137.598 113.468C137.246 112.413 135.313 102.659 133.292 91.8498L129.601 72.1651L132.765 69.6166C137.071 66.1015 139.531 60.5651 139.531 54.6773C139.531 48.7016 137.334 43.7804 132.765 39.738C128.107 35.5198 123.889 34.2016 117.298 34.8168C110.795 35.4319 105.962 38.5077 102.183 44.6592C99.9859 48.1743 99.5465 49.844 99.5465 54.2379C99.6344 61.4439 103.15 68.2984 108.159 71.1105C109.477 71.9014 108.686 76.4711 99.8101 121.992H99.5465L89.4405 258.994L89.0011 345.906L83.289 347.839C80.1254 348.806 76.786 350.124 75.8193 350.652C73.6224 351.882 73.0072 353.2 59.2103 386.066L48.4013 411.991L39.0862 412.43C30.8256 412.781 29.5953 413.133 27.5741 414.978C24.5863 417.791 23.7954 422.36 25.5529 426.139C28.5408 432.29 10.6136 431.763 222.049 431.587L413.009 431.324L415.118 428.863C418.984 424.381 418.984 419.812 415.118 415.33C413.096 412.957 412.569 412.869 403.518 412.43L394.115 411.991L382.075 383.43C375.484 367.7 369.509 353.991 368.894 352.936C367.663 351.003 364.324 349.333 357.469 347.136L353.515 345.906L353.075 258.994L341.298 121.327L332.951 72.253L336.027 69.5287C341.739 64.5197 344.024 57.6652 342.53 50.7228C340.421 41.4077 334.094 35.6077 325.042 34.8168C312.651 33.6744 302.985 42.2864 302.985 54.4136C302.985 60.653 305.445 66.0136 309.751 69.6166L312.915 72.253L309.224 91.8498C307.203 102.659 305.27 112.413 304.918 113.556C304.479 114.962 302.194 105.119 297.976 82.7984L291.649 50.0197L295.779 45.6258C300.612 40.441 302.633 34.9047 301.755 29.1926C300.085 18.7351 292 11.7048 281.718 11.7048C263.176 11.7927 254.915 34.0259 268.624 46.7682L271.964 49.9319L261.594 103.538L254.766 138.833C252.41 151.013 251.202 163.387 251.157 175.793L251.137 181.486C251.137 194.931 250.785 205.916 250.434 205.916C249.994 205.916 243.491 203.543 235.934 200.643C228.464 197.743 221.873 195.371 221.258 195.371C220.731 195.371 213.964 197.743 206.231 200.643C198.497 203.543 191.995 205.916 191.819 205.916C191.555 205.916 191.379 194.931 191.379 181.486L191.359 175.793C191.314 163.387 190.106 151.013 187.749 138.833L180.922 103.538L170.552 49.9319L173.892 46.7682C179.867 41.2319 182.152 33.4986 179.955 25.6775C178.813 21.4593 173.364 15.3078 169.058 13.3745C164.137 11.0896 156.755 11.1775 152.01 13.5502ZM165.016 27.5229C168.883 31.3895 166.07 37.4531 160.446 37.4531C157.283 37.4531 154.47 34.641 154.47 31.3895C154.47 28.4895 157.458 25.7653 160.622 25.7653C162.116 25.7653 164.049 26.5562 165.016 27.5229ZM286.2 28.0502C288.485 30.9501 288.485 32.8835 286.552 35.2562C282.861 39.6501 275.743 37.3653 275.743 31.8289C275.743 26.1168 282.773 23.6562 286.2 28.0502ZM123.713 50.3713C126.262 52.9197 125.998 56.8742 123.098 59.1591C117.474 63.553 110.531 56.6106 114.925 50.9864C117.21 48.0864 121.165 47.8228 123.713 50.3713ZM327.591 50.9864C329.524 53.447 329.436 56.7864 327.327 58.8954C323.548 62.5863 317.045 59.6864 317.045 54.3258C317.045 48.7016 324.076 46.5046 327.591 50.9864ZM168.97 146.334L171.167 214.264L150.077 222.349L151.834 149.937C151.834 149.937 159.919 106.965 160.358 105.735C160.798 104.592 167.476 135.789 168.97 146.334ZM286.2 125.947C288.309 136.844 290.155 146.774 290.418 148.092L292 222.086L271.349 214.264L273.106 149.41C273.106 149.41 281.455 104.944 281.982 105.559C282.246 105.91 284.179 115.05 286.2 125.947ZM128.722 171.643L108.774 238.255C108.774 238.255 119.231 126.035 119.407 125.244C119.583 124.453 128.722 171.643 128.722 171.643ZM322.318 126.913L333.742 238.255L312.212 229.907L312.915 168.916C315.288 156.965 322.318 127.616 322.318 126.913ZM130.304 229.907L119.583 234.037L108.774 238.255L128.722 171.643L130.304 229.907ZM236.812 221.91L251.137 227.446V237.464C251.137 245.285 250.873 247.219 250.082 246.604C249.467 246.076 243.579 241.595 237.076 236.585C226.091 228.061 224.949 227.446 221.258 227.446C217.567 227.446 216.425 228.061 205.44 236.585C198.937 241.595 193.049 246.076 192.522 246.604C191.643 247.219 191.379 245.285 191.379 237.464V227.446L205.264 222.086C212.822 219.098 219.852 216.637 220.731 216.549C221.697 216.461 228.903 218.922 236.812 221.91ZM170.992 278.943L170.728 322.179L162.731 324.552C158.249 325.87 153.68 327.188 152.361 327.54L150.077 328.067L150.252 285.709L150.516 243.352L159.743 239.661C164.84 237.64 169.498 235.882 170.113 235.882C170.992 235.795 171.167 244.67 170.992 278.943ZM282.773 239.661L292 243.352L292.264 285.709L292.439 328.067L290.155 327.54C288.836 327.188 284.267 325.87 279.785 324.552L271.788 322.179L271.524 278.943C271.349 244.67 271.524 235.795 272.403 235.882C273.018 235.882 277.676 237.64 282.773 239.661ZM236.637 261.016L251.137 272.264V293.97C251.137 306.009 250.873 315.764 250.609 315.764C250.258 315.764 243.931 314.006 236.549 311.809C229.255 309.612 222.313 307.855 221.258 307.855C220.203 307.855 213.261 309.612 205.967 311.809C198.585 314.006 192.258 315.764 191.907 315.764C191.643 315.764 191.379 306.009 191.379 293.97V272.264L205.704 261.103C213.525 255.04 220.467 249.943 220.994 249.943C221.609 249.855 228.64 254.864 236.637 261.016ZM130.743 292.476C130.743 330.439 130.655 333.339 129.249 334.042C128.371 334.482 124.065 335.888 119.671 337.206C115.277 338.436 110.971 339.667 110.18 340.018C108.862 340.545 108.774 337.382 108.949 299.858L109.213 259.17L118.44 255.479C123.537 253.458 128.371 251.788 129.249 251.701C130.655 251.613 130.743 254.073 130.743 292.476ZM323.636 255.391L333.303 259.17L333.566 299.858C333.742 332.285 333.566 340.458 332.688 340.106C332.073 339.93 327.767 338.612 323.197 337.294C318.627 335.976 314.145 334.482 313.354 334.042C311.861 333.339 311.773 330.439 311.773 292.476C311.773 260.4 312.036 251.613 312.915 251.613C313.442 251.613 318.364 253.282 323.636 255.391ZM287.606 347.312C323.724 357.945 353.427 366.733 353.603 366.997C354.218 367.612 372.409 410.936 372.409 411.815C372.409 412.166 368.454 412.342 363.533 412.254L354.657 411.991L347.012 394.415C338.663 375.082 336.115 371.567 328.03 367.612C321.967 364.624 312.388 364.624 305.885 367.524C300.261 369.985 294.109 376.4 292.176 381.673C291.385 383.87 290.155 391.515 289.364 398.721C288.661 405.927 287.87 412.078 287.606 412.254C286.727 413.221 285.497 410.936 274.776 387.824C259.661 355.133 255.882 349.773 243.228 343.533C235.143 339.491 229.782 338.173 221.258 338.173C208.164 338.173 196.301 343.094 187.425 352.145C181.713 358.033 181.01 359.351 165.895 391.779C156.931 411.024 155.789 413.133 154.91 412.342C154.646 412.078 153.855 406.366 153.152 399.6C152.449 392.921 151.57 386.154 151.307 384.748C149.813 377.806 143.925 370.864 136.455 367.436C130.216 364.624 120.549 364.624 114.486 367.612C106.313 371.567 103.853 375.082 95.4162 394.415L87.8587 411.991L78.983 412.254C74.0618 412.342 70.1073 412.166 70.1073 411.727C70.1073 410.848 88.2981 367.612 88.9132 366.997C89.4405 366.382 218.797 328.243 220.555 328.155C221.346 328.155 251.576 336.767 287.606 347.312ZM231.276 359.351C233.649 360.142 237.252 362.515 239.8 364.888C243.667 368.491 245.337 371.391 254.212 390.285C259.749 402.06 264.318 411.815 264.318 412.078C264.318 412.254 244.985 412.43 221.258 412.43C197.619 412.43 178.198 412.254 178.198 412.078C178.198 411.815 182.767 402.06 188.304 390.285C197.267 371.391 198.849 368.491 202.716 364.8C205.176 362.603 208.867 360.142 210.888 359.439C215.985 357.594 226.091 357.594 231.276 359.351ZM130.568 386.77C131.798 388 132.501 390.812 133.204 398.457C134.786 414.188 136.28 412.43 121.955 412.43C115.189 412.43 109.653 412.078 109.653 411.727C109.653 409.881 120.286 387.297 121.604 386.33C123.889 384.66 128.722 384.924 130.568 386.77ZM320.912 386.33C322.23 387.297 332.863 409.881 332.863 411.727C332.863 412.078 327.327 412.43 320.56 412.43H308.258V409.091C308.345 407.333 308.873 401.709 309.488 396.7C310.279 389.669 310.982 387.297 312.212 386.418C314.321 384.836 318.891 384.836 320.912 386.33Z" fill="black"/>
</svg>
