<svg width="443" height="443" viewBox="0 0 443 443" fill="none" xmlns="http://www.w3.org/2000/svg">
<path d="M126.438 69.0505C78.8169 78.9031 39.7521 102.67 18.0591 134.994L13.8242 141.389V255.732C13.8242 337.75 14.0835 370.765 14.7749 372.234C15.2935 373.444 16.6763 374.827 17.8863 375.346C20.8248 376.729 421.67 376.729 424.609 375.346C425.819 374.827 427.202 373.444 427.72 372.234C428.412 370.765 428.671 349.418 428.671 299.55C428.671 238.101 428.498 228.68 427.375 227.038C425.905 224.964 411.645 217.79 399.977 213.296C379.754 205.431 351.665 200.678 324.786 200.505C309.662 200.419 308.538 200.505 306.205 202.234L303.785 204.049L303.526 222.803L303.353 241.471L276.474 241.298L249.682 241.039L240.607 221.593C235.594 210.876 230.668 201.283 229.631 200.159C227.902 198.344 227.384 198.258 211.654 198.258C199.555 198.258 195.406 197.999 195.06 197.134C177.084 150.723 144.674 69.4826 143.723 68.3591C141.908 66.3713 138.365 66.5441 126.438 69.0505ZM145.106 108.807L155.304 134.735L150.032 135.34C147.094 135.685 140.698 136.377 135.685 136.895C111.572 139.402 80.9775 148.304 61.7909 158.329C54.7039 162.045 52.8025 164.811 54.4446 168.959C55.741 171.898 58.4202 174.059 60.8402 174.059C61.7909 174.059 66.6307 172.157 71.6435 169.824C96.1886 158.502 123.499 151.761 150.81 150.205L161.181 149.6L170.861 173.713L180.454 197.826L173.367 198.431C142.081 201.11 134.908 201.974 118.4 205.259C89.5337 210.876 55.741 221.852 34.3937 232.483L28.5167 235.421V190.652V145.97L30.8502 142.513C48.6541 115.894 84.0025 93.5956 122.721 84.6073C127.734 83.4837 132.488 82.6195 133.352 82.7059C134.562 82.8787 137.241 88.7557 145.106 108.807ZM235.594 244.842C243.891 262.559 250.633 277.165 250.633 277.338C250.633 277.425 238.274 277.77 223.235 278.03C208.111 278.375 190.566 278.894 184.344 279.24L172.849 279.758V262.732C172.849 245.793 172.849 245.706 170.688 243.632C167.836 240.693 163.515 240.693 160.663 243.718C158.588 245.879 158.588 246.311 158.329 263.596C158.07 281.054 157.983 281.227 156.168 281.227C152.193 281.227 115.721 284.684 105.868 285.981C89.1016 288.228 54.9632 293.932 41.7399 296.784C34.9123 298.167 29.2081 299.377 28.9488 299.377C28.6896 299.377 28.5167 288.487 28.5167 275.177V250.978L38.2829 246.138C69.5692 230.409 111.745 218.655 152.539 214.333C170.17 212.432 171.812 212.345 197.74 212.432L220.47 212.518L235.594 244.842ZM340.17 215.543C367.222 218.136 387.791 223.149 406.027 231.619L413.978 235.335V298.426V361.604H360.048H306.205L292.29 331.96C284.598 315.711 273.536 292.117 267.572 279.499L256.855 256.596L285.376 256.164L313.897 255.732L315.539 253.657C317.008 251.842 317.181 250.114 317.181 233.174V214.679H323.922C327.638 214.679 334.985 215.111 340.17 215.543ZM261.782 300.933C263.942 305.513 271.202 321.07 277.943 335.417L290.216 361.604H263.078H235.94V343.627C235.94 328.33 235.681 325.305 234.384 322.798C232.569 319.082 229.199 317.786 225.828 319.428C221.68 321.416 221.248 323.317 221.248 343.195V361.604H197.048H172.849V343.195C172.849 323.317 172.417 321.416 168.268 319.428C164.898 317.786 161.527 319.082 159.712 322.798C158.416 325.305 158.156 328.33 158.156 343.627V361.604H93.3365H28.5167V337.923V314.242L30.5045 313.81C87.2002 301.365 125.487 296.784 202.666 293.068C205.518 292.895 219.173 292.722 232.915 292.636L257.979 292.549L261.782 300.933Z" fill="black"/>
</svg>
